<?xml version="1.0" encoding="UTF-8"?>
<svg version="1.1" xmlns="http://www.w3.org/2000/svg" width="343" height="343">
<path d="M0 0 C2.02706691 -0.00219432 4.05359447 -0.02045223 6.08056641 -0.03930664 C13.79270919 -0.05065916 21.00758839 0.44387077 28.52978516 2.18530273 C29.74516782 48.53345306 16.88341187 93.82719123 -15.54052734 128.39233398 C-16.68042598 129.52483068 -17.8326635 130.64515996 -19.00146484 131.74780273 C-20.7133658 133.36280777 -20.7133658 133.36280777 -22.84521484 136.18530273 C-25.69083929 139.43744496 -28.73092614 141.77146121 -32.17333984 144.35327148 C-34.33111474 146.07435384 -36.14977496 147.86072317 -38.03271484 149.87280273 C-41.73646526 153.66456306 -45.75334811 156.86830241 -49.97021484 160.06030273 C-50.9883728 160.84618774 -50.9883728 160.84618774 -52.02709961 161.64794922 C-55.58030453 164.3160553 -58.99618344 166.52948236 -63.06396484 168.33374023 C-69.5275362 171.25724452 -69.5275362 171.25724452 -74.47021484 176.18530273 C-76.24022196 182.98137285 -75.13979798 190.19613701 -74.60791016 197.10961914 C-73.79099729 215.3569033 -80.01432687 235.56972393 -92.09521484 249.21264648 C-98.50385233 256.12229913 -105.53986382 261.31902052 -113.62744141 266.09545898 C-115.53192591 267.22179958 -117.41980366 268.37262653 -119.30615234 269.52905273 C-125.93605191 273.57502581 -132.63179907 277.44809082 -139.49365234 281.09155273 C-141.41022176 282.03319776 -141.41022176 282.03319776 -142.47021484 283.18530273 C-144.46979848 283.22611056 -146.47066738 283.2278463 -148.47021484 283.18530273 C-148.29063232 282.60337158 -148.1110498 282.02144043 -147.92602539 281.421875 C-140.69517119 257.69468674 -134.05313768 234.40554465 -145.70068359 210.89233398 C-146.47021484 209.18530273 -146.47021484 209.18530273 -146.47021484 207.18530273 C-159.01938897 208.51145968 -159.01938897 208.51145968 -169.07275391 215.19213867 C-171.66099296 220.27275607 -173.00149085 225.78120433 -174.52441406 231.25268555 C-176.16176708 236.32957879 -178.6391883 240.93575259 -181.15771484 245.62280273 C-181.61033691 246.49171143 -182.06295898 247.36062012 -182.52929688 248.25585938 C-185.07790319 253.03203572 -187.62142107 257.34890443 -191.47021484 261.18530273 C-196.22359409 262.51266147 -201.34617788 260.00923744 -205.59521484 257.93530273 C-221.44472557 248.67491444 -238.27070207 232.71196269 -244.47021484 215.18530273 C-245.0229377 211.39520315 -244.96429384 209.8497538 -242.65771484 206.74780273 C-232.35955049 197.76551494 -210.61352739 184.18530273 -196.47021484 184.18530273 C-196.80408203 183.61166992 -197.13794922 183.03803711 -197.48193359 182.44702148 C-200.23572592 176.14486435 -196.74561085 168.23871474 -194.47021484 162.18530273 C-195.61490234 161.81405273 -195.61490234 161.81405273 -196.78271484 161.43530273 C-200.78836495 160.07745524 -204.73652375 158.59252707 -208.68896484 157.08764648 C-226.52033005 151.30247041 -248.15869938 155.41479758 -265.47021484 161.18530273 C-267.8032131 161.22484508 -270.13729673 161.22932006 -272.47021484 161.18530273 C-272.05143654 155.83540991 -269.03517754 152.30683863 -265.97021484 148.12280273 C-265.42776123 147.3698291 -264.88530762 146.61685547 -264.32641602 145.84106445 C-262.7175167 143.61510828 -261.09614229 141.39884067 -259.47021484 139.18530273 C-258.82560303 138.30237549 -258.82560303 138.30237549 -258.16796875 137.40161133 C-244.52727641 118.75235976 -232.49165319 103.57174903 -209.47021484 97.18530273 C-208.51614746 96.91983643 -207.56208008 96.65437012 -206.57910156 96.38085938 C-196.3566232 93.85391277 -186.56341495 93.83595483 -176.09521484 93.99780273 C-174.37647672 94.01289362 -172.65772561 94.02657415 -170.93896484 94.03881836 C-166.78238633 94.07143673 -162.62644954 94.1229688 -158.47021484 94.18530273 C-158.16784912 93.40606445 -157.8654834 92.62682617 -157.55395508 91.82397461 C-148.38606954 69.50216635 -121.00760628 45.7986089 -101.47021484 32.18530273 C-100.40802734 31.42862305 -99.34583984 30.67194336 -98.25146484 29.89233398 C-69.70076693 10.18548137 -34.46687393 -0.00416367 0 0 Z " fill="#D9DDE0" transform="translate(295.47021484375,28.814697265625)"/>
<path d="M0 0 C1.71873813 0.01509088 3.43748924 0.02877141 5.15625 0.04101562 C9.31282851 0.073634 13.46876531 0.12516607 17.625 0.1875 C17.625 0.5175 17.625 0.8475 17.625 1.1875 C3.27 1.6825 3.27 1.6825 -11.375 2.1875 C-6.52850804 2.14799276 -6.52850804 2.14799276 -1.68212891 2.09741211 C3.40277778 2.07638889 3.40277778 2.07638889 5.625 3.1875 C5.295 4.5075 4.965 5.8275 4.625 7.1875 C3.965 7.1875 3.305 7.1875 2.625 7.1875 C2.625 7.8475 2.625 8.5075 2.625 9.1875 C1.305 9.8475 -0.015 10.5075 -1.375 11.1875 C-1.375 12.1775 -1.375 13.1675 -1.375 14.1875 C-0.6325 13.445 0.11 12.7025 0.875 11.9375 C5.75 7.0625 5.75 7.0625 10.625 2.1875 C10.625 2.8475 10.625 3.5075 10.625 4.1875 C11.615 3.8575 12.605 3.5275 13.625 3.1875 C14.12 4.6725 14.12 4.6725 14.625 6.1875 C13.965 6.1875 13.305 6.1875 12.625 6.1875 C12.45097656 7.03441406 12.45097656 7.03441406 12.2734375 7.8984375 C11.55383653 10.43871562 10.52487241 12.50227666 9.25 14.8125 C8.82976562 15.58851563 8.40953125 16.36453125 7.9765625 17.1640625 C6.625 19.1875 6.625 19.1875 3.625 21.1875 C2.4383612 23.62670199 1.68701853 25.7967166 1.26171875 28.4765625 C0.49355778 31.74713743 -0.85585453 34.2848651 -2.4375 37.25 C-8.42105356 48.77890167 -12.83492905 61.03652295 -17.375 73.1875 C-17.766875 74.1775 -18.15875 75.1675 -18.5625 76.1875 C-19.88297878 81.06311395 -20.62752454 84.97060841 -18.1015625 89.44140625 C-15.27160737 93.41651067 -15.27160737 93.41651067 -11.375 96.1875 C-12.64441497 100.10152949 -13.88667694 101.97822873 -17.375 104.1875 C-18.695 102.8675 -20.015 101.5475 -21.375 100.1875 C-21.705 100.8475 -22.035 101.5075 -22.375 102.1875 C-21.715 102.1875 -21.055 102.1875 -20.375 102.1875 C-20.87 104.1675 -20.87 104.1675 -21.375 106.1875 C-19.16418149 106.29290926 -19.16418149 106.29290926 -16.375 105.1875 C-16.54 105.785625 -16.705 106.38375 -16.875 107 C-17.4864124 109.30094336 -17.4864124 109.30094336 -17.375 112.1875 C-17.87 113.6725 -17.87 113.6725 -18.375 115.1875 C-12.70178062 110.42459663 -7.45551281 105.33019384 -2.28125 100.03125 C-0.17855754 97.92284389 2.01444686 95.96952897 4.27661133 94.03369141 C8.74356931 90.13990942 12.93146329 86.00818483 17.10546875 81.8046875 C17.88134842 81.02739288 18.65722809 80.25009827 19.45661926 79.44924927 C21.91096156 76.98936104 24.36179082 74.52600725 26.8125 72.0625 C28.46786545 70.40211092 30.1234624 68.74195259 31.77929688 67.08203125 C35.46969935 63.38174441 39.15765389 59.67903479 42.84408569 55.97479248 C44.39123483 54.42210238 45.94148239 52.87261903 47.4934082 51.32470703 C48.95311289 49.86115706 50.39202012 48.37665016 51.8125 46.875 C53.625 45.1875 53.625 45.1875 55.625 45.1875 C53.62471258 58.3004953 46.23812187 68.44145485 37.625 78.1875 C36.89152344 79.04214844 36.15804687 79.89679688 35.40234375 80.77734375 C29.49365286 87.54055431 23.10343985 93.72567929 15.9921875 99.22265625 C13.87111151 100.98321933 12.49949786 102.47015122 11 104.75 C9.39426556 107.1693784 7.73216111 109.18386993 5.625 111.1875 C6.45 110.960625 7.275 110.73375 8.125 110.5 C12.15229747 110.14041987 14.22007539 110.99304866 17.79296875 112.69140625 C18.39753906 112.85511719 19.00210938 113.01882812 19.625 113.1875 C20.615 112.5275 21.605 111.8675 22.625 111.1875 C23.945 112.1775 25.265 113.1675 26.625 114.1875 C25.4184375 114.30480469 24.211875 114.42210937 22.96875 114.54296875 C14.0290656 115.81616585 14.0290656 115.81616585 7.16455078 121.14697266 C4.65912503 126.27155944 3.23387277 131.78494793 1.61914062 137.23876953 C-0.08647644 142.29781739 -2.54792849 146.92813517 -5.0625 151.625 C-5.74107056 152.92824219 -5.74107056 152.92824219 -6.43334961 154.2578125 C-8.98294787 159.03368191 -11.52602447 163.35092052 -15.375 167.1875 C-20.12837925 168.51485873 -25.25096303 166.01143471 -29.5 163.9375 C-45.34951073 154.67711171 -62.17548722 138.71415995 -68.375 121.1875 C-68.92772286 117.39740041 -68.869079 115.85195107 -66.5625 112.75 C-56.26433565 103.7677122 -34.51831254 90.1875 -20.375 90.1875 C-20.70886719 89.61386719 -21.04273437 89.04023438 -21.38671875 88.44921875 C-24.14051107 82.14706162 -20.650396 74.24091201 -18.375 68.1875 C-19.5196875 67.81625 -19.5196875 67.81625 -20.6875 67.4375 C-24.6931501 66.07965251 -28.64130891 64.59472434 -32.59375 63.08984375 C-50.42511521 57.30466768 -72.06348453 61.41699484 -89.375 67.1875 C-91.70799825 67.22704234 -94.04208189 67.23151732 -96.375 67.1875 C-95.9562217 61.83760718 -92.93996269 58.3090359 -89.875 54.125 C-89.06131958 52.99553955 -89.06131958 52.99553955 -88.23120117 51.84326172 C-86.62230186 49.61730554 -85.00092745 47.40103793 -83.375 45.1875 C-82.94525879 44.59888184 -82.51551758 44.01026367 -82.07275391 43.40380859 C-68.43206156 24.75455702 -56.39643835 9.57394629 -33.375 3.1875 C-32.42093262 2.92203369 -31.46686523 2.65656738 -30.48388672 2.38305664 C-20.26140836 -0.14388996 -10.46820011 -0.1618479 0 0 Z " fill="#BCC1C9" transform="translate(119.375,122.8125)"/>
<path d="M0 0 C2.0625 0.4375 2.0625 0.4375 4 1 C4.495 3.475 4.495 3.475 5 6 C5.33 6 5.66 6 6 6 C6.17888475 11.85681917 5.62759484 17.04837576 4.3125 22.75 C4.13243408 23.5349585 3.95236816 24.31991699 3.7668457 25.12866211 C1.19234787 35.86325133 -2.56145201 44.74467027 -10 53 C-10.71929687 53.81210937 -11.43859375 54.62421875 -12.1796875 55.4609375 C-18.65588245 62.36180097 -25.95817714 67.18747163 -34 72 C-35.28186267 72.78285185 -36.5631079 73.56671555 -37.84375 74.3515625 C-44.47251986 78.39226726 -51.16484467 82.2645193 -58.0234375 85.90625 C-59.94000691 86.84789503 -59.94000691 86.84789503 -61 88 C-62.99958364 88.04080783 -65.00045254 88.04254356 -67 88 C-66.82041748 87.41806885 -66.64083496 86.8361377 -66.45581055 86.23657227 C-59.22495634 62.50938401 -52.58292284 39.22024191 -64.23046875 15.70703125 C-65 14 -65 14 -65 12 C-65.99 11.67 -66.98 11.34 -68 11 C-66.68 11 -65.36 11 -64 11 C-63.7525 11.969375 -63.505 12.93875 -63.25 13.9375 C-62.37796169 17.08098781 -62.37796169 17.08098781 -60.1875 17.8125 C-59.465625 17.874375 -58.74375 17.93625 -58 18 C-57.2575 18.2475 -56.515 18.495 -55.75 18.75 C-52.2866082 19.0648538 -50.15557816 18.0857872 -46.99609375 16.75390625 C-45 16 -45 16 -41.625 15.5625 C-38.84422511 15.28572182 -38.84422511 15.28572182 -37.625 12.9375 C-37.315625 11.9784375 -37.315625 11.9784375 -37 11 C-34.525 11.495 -34.525 11.495 -32 12 C-32 11.34 -32 10.68 -32 10 C-30.68 10.33 -29.36 10.66 -28 11 C-28 11.66 -28 12.32 -28 13 C-27.34 12.67 -26.68 12.34 -26 12 C-26 11.01 -26 10.02 -26 9 C-25.38125 8.87625 -24.7625 8.7525 -24.125 8.625 C-21.80879168 8.12802644 -21.80879168 8.12802644 -20 6 C-20 6.99 -20 7.98 -20 9 C-17.7763932 7.0745356 -17.7763932 7.0745356 -17 4 C-15.35 3.67 -13.7 3.34 -12 3 C-12.33 3.66 -12.66 4.32 -13 5 C-12.401875 4.835 -11.80375 4.67 -11.1875 4.5 C-9 4 -9 4 -6 4 C-6 3.34 -6 2.68 -6 2 C-4.7934375 1.7834375 -4.7934375 1.7834375 -3.5625 1.5625 C-1.07896294 1.25864751 -1.07896294 1.25864751 0 0 Z M-43 18 C-43.33 18.66 -43.66 19.32 -44 20 C-43.34 20 -42.68 20 -42 20 C-42.33 19.34 -42.66 18.68 -43 18 Z " fill="#ACB1BB" transform="translate(214,224)"/>
<path d="M0 0 C8.96184673 5.5797237 13.93286379 12.98609137 17.25 22.9375 C18.13131389 31.0727051 16.36337745 39.01265616 12.5 46.1875 C6.62726811 53.36528343 0.64530273 59.10968656 -8.75 60.9375 C-16.98379892 61.6098718 -23.62127454 61.2743672 -30.75 56.9375 C-31.79800781 56.31875 -31.79800781 56.31875 -32.8671875 55.6875 C-39.5316604 51.26128403 -42.7429641 45.13402961 -46.125 38.0625 C-47.73070487 30.03397566 -47.78225809 21.2443626 -43.75 13.9375 C-33.35918426 -0.46495979 -17.19494069 -7.91178253 0 0 Z " fill="#172F86" transform="translate(248.75,81.0625)"/>
<path d="M0 0 C-2.00028742 13.1129953 -9.38687813 23.25395485 -18 33 C-18.73347656 33.85464844 -19.46695313 34.70929688 -20.22265625 35.58984375 C-26.13134714 42.35305431 -32.52156015 48.53817929 -39.6328125 54.03515625 C-41.75388849 55.79571933 -43.12550214 57.28265122 -44.625 59.5625 C-46.23073444 61.9818784 -47.89283889 63.99636993 -50 66 C-49.175 65.773125 -48.35 65.54625 -47.5 65.3125 C-43.47270253 64.95291987 -41.40492461 65.80554866 -37.83203125 67.50390625 C-37.22746094 67.66761719 -36.62289062 67.83132812 -36 68 C-35.01 67.34 -34.02 66.68 -33 66 C-31.68 66.99 -30.36 67.98 -29 69 C-30.2065625 69.11730469 -31.413125 69.23460937 -32.65625 69.35546875 C-41.5959344 70.62866585 -41.5959344 70.62866585 -48.46044922 75.95947266 C-50.96587497 81.08405944 -52.39112723 86.59744793 -54.00585938 92.05126953 C-55.71147644 97.11031739 -58.17292849 101.74063517 -60.6875 106.4375 C-61.13988037 107.30632812 -61.59226074 108.17515625 -62.05834961 109.0703125 C-64.60794787 113.84618191 -67.15102447 118.16342052 -71 122 C-75.95550037 123.3838001 -81.13651409 120.6559109 -85.5 118.4375 C-90.94887187 115.27884508 -95.498122 111.37960477 -100 107 C-96.98968256 106.06576355 -96.13349732 105.95550089 -93 107 C-91 110 -91 110 -91 113 C-87.40445795 113.92497096 -87.40445795 113.92497096 -84 113 C-81.15469364 109.26126745 -79.12059483 105.17964205 -77 101 C-76.34 100.01 -75.68 99.02 -75 98 C-74.855625 97.319375 -74.71125 96.63875 -74.5625 95.9375 C-74 94 -74 94 -71 92 C-69.98189828 90.22960831 -69.98189828 90.22960831 -69.1875 88.125 C-66.73527276 82.27591325 -63.86966209 76.65323432 -61 71 C-66.77696909 74.58936682 -72.41999474 78.22777256 -77.80859375 82.37890625 C-82.40274325 85.77743039 -87.2244914 88.86408269 -92 92 C-92.66 91.67 -93.32 91.34 -94 91 C-88.59587639 85.57038852 -83.1877311 80.14480655 -77.77685547 74.72192383 C-75.93902648 72.87908581 -74.10209851 71.03534875 -72.26611328 69.19067383 C-69.61731177 66.52965592 -66.96521875 63.87195597 -64.3125 61.21484375 C-63.50071289 60.39789536 -62.68892578 59.58094696 -61.85253906 58.73924255 C-57.68766257 54.57396286 -53.44249749 50.59515748 -48.97909546 46.75325012 C-45.34082324 43.53016092 -41.94317692 40.06502329 -38.51953125 36.6171875 C-37.74365158 35.83989288 -36.96777191 35.06259827 -36.16838074 34.26174927 C-33.71403844 31.80186104 -31.26320918 29.33850725 -28.8125 26.875 C-27.15713455 25.21461092 -25.5015376 23.55445259 -23.84570312 21.89453125 C-20.15530065 18.19424441 -16.46734611 14.49153479 -12.78091431 10.78729248 C-11.23376517 9.23460238 -9.68351761 7.68511903 -8.1315918 6.13720703 C-6.67188711 4.67365706 -5.23297988 3.18915016 -3.8125 1.6875 C-2 0 -2 0 0 0 Z " fill="#98A0AF" transform="translate(175,168)"/>
<path d="M0 0 C4.42382206 3.98049661 7.58223094 8.24007845 8.25 14.25 C8.54863366 20.37199006 7.65868099 25.0147797 4 30 C-0.19130205 34.46939792 -4.43600254 37.54792953 -10.6484375 38.3359375 C-16.78783882 38.42389454 -21.23764115 38.07181682 -26 34 C-31.2098154 28.91078218 -34.25384309 24.15261332 -34.4375 16.6875 C-34.30451249 10.10018558 -32.00501716 6.15808774 -27.54296875 1.46875 C-19.31594886 -5.99851871 -9.01227337 -5.69722272 0 0 Z " fill="#DEE9F5" transform="translate(247,93)"/>
<path d="M0 0 C1.0209375 0.61875 1.0209375 0.61875 2.0625 1.25 C5.35191348 3.20965058 8.67160863 5.1073853 12 7 C11.37617432 7.24645264 10.75234863 7.49290527 10.10961914 7.74682617 C7.52057818 9.28479021 7.18182667 10.2318511 6.24609375 13.05078125 C5.95452393 13.88472412 5.6629541 14.71866699 5.36254883 15.57788086 C5.05728271 16.48030518 4.7520166 17.38272949 4.4375 18.3125 C1.56424064 26.31633136 -1.73113748 33.90816677 -5.6875 41.4375 C-6.13875244 42.30608643 -6.59000488 43.17467285 -7.05493164 44.06958008 C-9.60942082 48.84373539 -12.15025045 53.162649 -16 57 C-20.95550037 58.3838001 -26.13651409 55.6559109 -30.5 53.4375 C-35.94887187 50.27884508 -40.498122 46.37960477 -45 42 C-41.98968256 41.06576355 -41.13349732 40.95550089 -38 42 C-36 45 -36 45 -36 48 C-32.40445795 48.92497096 -32.40445795 48.92497096 -29 48 C-26.15469364 44.26126745 -24.12059483 40.17964205 -22 36 C-21.34 35.01 -20.68 34.02 -20 33 C-19.7834375 31.9790625 -19.7834375 31.9790625 -19.5625 30.9375 C-19 29 -19 29 -16 27 C-15.05134015 25.32965264 -15.05134015 25.32965264 -14.3125 23.3125 C-12.40733698 18.80336899 -10.26498382 14.46130343 -8 10.125 C-7.50173706 9.14333862 -7.50173706 9.14333862 -6.9934082 8.1418457 C-5.11838214 4.58579357 -3.47368677 2.09351658 0 0 Z " fill="#8C95A5" transform="translate(120,233)"/>
<path d="M0 0 C0.495 0.99 0.495 0.99 1 2 C1.99 1.67 2.98 1.34 4 1 C4.495 2.485 4.495 2.485 5 4 C4.34 4 3.68 4 3 4 C2.82597656 4.84691406 2.82597656 4.84691406 2.6484375 5.7109375 C1.92883653 8.25121562 0.89987241 10.31477666 -0.375 12.625 C-0.79523438 13.40101563 -1.21546875 14.17703125 -1.6484375 14.9765625 C-3 17 -3 17 -6 19 C-7.1866388 21.43920199 -7.93798147 23.6092166 -8.36328125 26.2890625 C-9.13144222 29.55963743 -10.48085453 32.0973651 -12.0625 35.0625 C-18.04605356 46.59140167 -22.45992905 58.84902295 -27 71 C-27.391875 71.99 -27.78375 72.98 -28.1875 74 C-29.56418175 79.08313261 -29.4135303 83.91129092 -28 89 C-29.134375 89.38671875 -30.26875 89.7734375 -31.4375 90.171875 C-32.95843263 90.69762949 -34.47926039 91.22368746 -36 91.75 C-36.74378906 92.00265625 -37.48757812 92.2553125 -38.25390625 92.515625 C-43.39717763 94.30458896 -48.18779614 96.45791743 -53 99 C-55.12372178 100.10662317 -57.24859842 101.21103491 -59.375 102.3125 C-60.39335938 102.84488281 -61.41171875 103.37726563 -62.4609375 103.92578125 C-63.29882812 104.28027344 -64.13671875 104.63476562 -65 105 C-65.66 104.67 -66.32 104.34 -67 104 C-59.96571087 99.50704088 -52.79970726 95.87361607 -45.125 92.625 C-44.31699951 92.27953125 -43.50899902 91.9340625 -42.67651367 91.578125 C-38.45404271 89.82805932 -34.58241933 88.51570636 -30 88 C-30.33386719 87.42636719 -30.66773438 86.85273438 -31.01171875 86.26171875 C-33.76551107 79.95956162 -30.275396 72.05341201 -28 66 C-29.1446875 65.62875 -29.1446875 65.62875 -30.3125 65.25 C-33.40254212 64.20252809 -36.44592134 63.08330031 -39.5 61.9375 C-43.32839595 60.53253614 -46.92253204 59.44080735 -51 59 C-51 58.67 -51 58.34 -51 58 C-46.1666528 57.91666643 -41.76307437 58.04738513 -37 59 C-36.92007813 58.34386719 -36.84015625 57.68773437 -36.7578125 57.01171875 C-35.72979164 52.92613068 -33.86707331 49.50687566 -31.875 45.8125 C-31.47337646 45.0587207 -31.07175293 44.30494141 -30.65795898 43.52832031 C-27.90591624 38.44846492 -24.91318526 33.68257921 -21.41015625 29.078125 C-19.87148336 26.81060706 -18.93016939 24.57032314 -18 22 C-17.34 22 -16.68 22 -16 22 C-15.7525 21.4225 -15.505 20.845 -15.25 20.25 C-13.83316683 17.6997003 -12.12372463 15.98214299 -10 14 C-10.495 13.01 -10.495 13.01 -11 12 C-6 7 -6 7 -3.8125 4.875 C-1.82343774 2.92958282 -1.82343774 2.92958282 0 0 Z " fill="#989DA7" transform="translate(129,125)"/>
<path d="M0 0 C8.96184673 5.5797237 13.93286379 12.98609137 17.25 22.9375 C17.31740865 24.49868428 17.33514456 26.0625252 17.3125 27.625 C17.30347656 28.43324219 17.29445313 29.24148437 17.28515625 30.07421875 C17.27355469 30.68910156 17.26195312 31.30398437 17.25 31.9375 C16.92 31.9375 16.59 31.9375 16.25 31.9375 C15.755 27.9775 15.755 27.9775 15.25 23.9375 C14.92 27.2375 14.59 30.5375 14.25 33.9375 C11.28 34.4325 11.28 34.4325 8.25 34.9375 C8.14042969 34.15246094 8.03085937 33.36742187 7.91796875 32.55859375 C6.62520177 23.90990039 6.62520177 23.90990039 3.25 15.9375 C1.50160856 14.64584575 1.50160856 14.64584575 -0.75 13.9375 C-1.94571845 13.26439534 -3.13261095 12.5754815 -4.3125 11.875 C-9.7621585 8.8033743 -14.79163202 7.947908 -20.875 9.46875 C-24.29706416 10.66128751 -26.5561916 11.76732677 -29.3125 14.1875 C-31.75 15.9375 -31.75 15.9375 -35.5625 15.6875 C-36.614375 15.44 -37.66625 15.1925 -38.75 14.9375 C-39.1521875 15.9584375 -39.1521875 15.9584375 -39.5625 17 C-40.75 19.9375 -40.75 19.9375 -42.375 22.875 C-44.86042187 28.4703216 -43.97385257 34.9598072 -43.75 40.9375 C-47.8902722 34.7270917 -47.44482553 27.70201791 -46.39453125 20.5 C-44.12291786 11.96239264 -37.28756674 5.45758033 -30.375 0.3125 C-21.87733126 -4.36254973 -8.71458388 -4.00977786 0 0 Z " fill="#2C62AC" transform="translate(248.75,81.0625)"/>
<path d="M0 0 C0.495 0.99 0.495 0.99 1 2 C0.00529046 4.57887657 -1.05635441 7.01339973 -2.25 9.5 C-2.60989014 10.25321533 -2.96978027 11.00643066 -3.34057617 11.7824707 C-11.30384194 28.06064444 -21.2724637 44.05421103 -34.53125 56.5625 C-36.24315096 58.17750504 -36.24315096 58.17750504 -38.375 61 C-41.22062444 64.25214222 -44.2607113 66.58615848 -47.703125 69.16796875 C-49.86089989 70.8890511 -51.67956012 72.67542044 -53.5625 74.6875 C-57.26625042 78.47926033 -61.28313327 81.68299967 -65.5 84.875 C-66.51815796 85.66088501 -66.51815796 85.66088501 -67.55688477 86.46264648 C-71.11008969 89.13075256 -74.5259686 91.34417962 -78.59375 93.1484375 C-85.08984243 96.04269762 -85.08984243 96.04269762 -90 101 C-91.93592749 108.81795719 -90.98232776 117.09037248 -90 125 C-90.33 125 -90.66 125 -91 125 C-91.33 117.08 -91.66 109.16 -92 101 C-94.97 101.99 -94.97 101.99 -98 103 C-98.33 101.68 -98.66 100.36 -99 99 C-97.125 97.9375 -97.125 97.9375 -95 97 C-94.34 97.33 -93.68 97.66 -93 98 C-90.39068734 97.10636395 -90.39068734 97.10636395 -88 96 C-88.495 93.03 -88.495 93.03 -89 90 C-86 90 -86 90 -84.0625 90.625 C-80.30613725 91.30797505 -77.92559464 88.95331428 -74.8125 87 C-71.95351459 85.29848525 -71.95351459 85.29848525 -71 83 C-69.35 83 -67.7 83 -66 83 C-65.67 81.35 -65.34 79.7 -65 78 C-64.67 78.66 -64.34 79.32 -64 80 C-63.34 80 -62.68 80 -62 80 C-61.505 78.02 -61.505 78.02 -61 76 C-60.360625 75.896875 -59.72125 75.79375 -59.0625 75.6875 C-58.381875 75.460625 -57.70125 75.23375 -57 75 C-55.7922442 71.37673261 -56.45688872 70.35853631 -58 67 C-53.46017699 64.85619469 -53.46017699 64.85619469 -51 65.625 C-48.76537969 66.28502286 -48.76537969 66.28502286 -46.375 64.25 C-43.86621284 62.04040107 -43.86621284 62.04040107 -42 59 C-41.01 59 -40.02 59 -39 59 C-39.33 58.01 -39.66 57.02 -40 56 C-38.21653709 52.96811304 -37.40424844 52.13474948 -34 51 C-32.87483915 49.16715557 -32.87483915 49.16715557 -32 47 C-31.0625 44.8125 -31.0625 44.8125 -30 43 C-29.01 42.67 -28.02 42.34 -27 42 C-25.27056525 40.68732044 -25.27056525 40.68732044 -24 39 C-24 38.01 -24 37.02 -24 36 C-23.01 36 -22.02 36 -21 36 C-21 35.34 -21 34.68 -21 34 C-20.01 33.67 -19.02 33.34 -18 33 C-15.68593888 29.52890832 -15.91380385 28.05121887 -16 24 C-15.67 23.34 -15.34 22.68 -15 22 C-15.66 21.67 -16.32 21.34 -17 21 C-17 19.68 -17 18.36 -17 17 C-15.68 17 -14.36 17 -13 17 C-13 17.99 -13 18.98 -13 20 C-9.60816956 18.62474195 -8.37030797 17.45462656 -6.89453125 14.12109375 C-6.55099609 13.36505859 -6.20746094 12.60902344 -5.85351562 11.83007812 C-5.50998047 11.04052734 -5.16644531 10.25097656 -4.8125 9.4375 C-4.11222589 7.87300375 -3.4104801 6.30916511 -2.70703125 4.74609375 C-2.25034058 3.70473267 -2.25034058 3.70473267 -1.78442383 2.64233398 C-1 1 -1 1 0 0 Z " fill="#686D7B" transform="translate(311,104)"/>
<path d="M0 0 C1.32 0.33 2.64 0.66 4 1 C2.72793941 4.81618178 1.05611851 5.7066565 -2.125 8.125 C-6.66111788 11.73033006 -10.19363801 15.35512503 -13.5625 20.0546875 C-14.91777927 21.8887339 -16.34652563 23.43510461 -18 25 C-17.175 24.773125 -16.35 24.54625 -15.5 24.3125 C-11.47270253 23.95291987 -9.40492461 24.80554866 -5.83203125 26.50390625 C-5.22746094 26.66761719 -4.62289062 26.83132812 -4 27 C-3.01 26.34 -2.02 25.68 -1 25 C0.32 25.99 1.64 26.98 3 28 C-8.55813953 31.90697674 -8.55813953 31.90697674 -14 31 C-16.88554684 29.23802892 -19.45525613 27.22086738 -22 25 C-25.26460973 26.80412643 -26.88929795 27.83394693 -29 31 C-30.65647833 31.69159365 -32.32471928 32.35528555 -34 33 C-35.65938915 34.1172125 -37.2824257 35.28944508 -38.875 36.5 C-45.73676649 41.60643088 -52.85828706 46.29668567 -60 51 C-60.66 50.67 -61.32 50.34 -62 50 C-59.07380414 46.9997088 -56.13792339 44.00934707 -53.19262695 41.02783203 C-52.19185072 40.01195893 -51.19378218 38.99341103 -50.19848633 37.97216797 C-48.7682527 36.50559059 -47.32859157 35.04887437 -45.88671875 33.59375 C-45.02264404 32.71396484 -44.15856934 31.83417969 -43.26831055 30.92773438 C-41 29 -41 29 -38 29 C-37.34 28.34 -36.68 27.68 -36 27 C-36 27.66 -36 28.32 -36 29 C-34.68 28.34 -33.36 27.68 -32 27 C-32.33 26.34 -32.66 25.68 -33 25 C-32.34 25 -31.68 25 -31 25 C-30.71125 24.38125 -30.4225 23.7625 -30.125 23.125 C-29 21 -29 21 -27 19 C-25.0625 19.375 -25.0625 19.375 -23 20 C-22.01 20 -21.02 20 -20 20 C-19.34 18.68 -18.68 17.36 -18 16 C-17.01 16 -16.02 16 -15 16 C-15 15.34 -15 14.68 -15 14 C-13.34614767 12.65080468 -11.678298 11.31866272 -10 10 C-9.34 9.01 -8.68 8.02 -8 7 C-6.0625 6.4375 -6.0625 6.4375 -4 6 C-0.87525373 4.36526484 -0.87525373 4.36526484 -0.3125 1.875 C-0.209375 1.25625 -0.10625 0.6375 0 0 Z " fill="#8790A3" transform="translate(143,209)"/>
<path d="M0 0 C-0.66 0.99 -1.32 1.98 -2 3 C-2.66 2.67 -3.32 2.34 -4 2 C-11.69031067 -0.7236517 -19.35593921 -1.1998394 -27 2 C-28.423125 2.556875 -28.423125 2.556875 -29.875 3.125 C-30.926875 3.558125 -30.926875 3.558125 -32 4 C-29.2935645 4.90214517 -27.52397168 5.15666097 -24.7265625 5.24609375 C-23.4890625 5.29540039 -23.4890625 5.29540039 -22.2265625 5.34570312 C-20.50012414 5.406621 -18.77355506 5.4639464 -17.046875 5.51757812 C-8.75820085 5.85971187 -8.75820085 5.85971187 -5 8 C-4.34 8.99 -3.68 9.98 -3 11 C-3.556875 10.7834375 -4.11375 10.566875 -4.6875 10.34375 C-12.37448101 7.53904071 -18.45552592 6.93044629 -26.1953125 10.0625 C-28.24966298 11.03836894 -28.24966298 11.03836894 -30.5625 13.25 C-33 15 -33 15 -36.8125 14.75 C-37.864375 14.5025 -38.91625 14.255 -40 14 C-40.4021875 15.0209375 -40.4021875 15.0209375 -40.8125 16.0625 C-42 19 -42 19 -43.625 21.9375 C-46.11042187 27.5328216 -45.22385257 34.0223072 -45 40 C-49.1402722 33.7895917 -48.69482553 26.76451791 -47.64453125 19.5625 C-45.37291786 11.02489264 -38.53756674 4.52008033 -31.625 -0.625 C-22.4331926 -5.7347764 -9.13633135 -4.58651172 0 0 Z " fill="#265FB0" transform="translate(250,82)"/>
<path d="M0 0 C0.66 0.99 1.32 1.98 2 3 C1.35933594 3.27972656 0.71867187 3.55945313 0.05859375 3.84765625 C-5.29442616 6.32871317 -9.28422602 8.75760072 -13.13671875 13.25390625 C-15.26893951 15.25202507 -17.61190049 16.47878898 -20.16088867 17.87768555 C-23.22368064 19.74674896 -25.72738494 22.15543925 -28.3125 24.625 C-28.83650391 25.11484375 -29.36050781 25.6046875 -29.90039062 26.109375 C-31.96408866 28.04359646 -33.9999649 29.9999649 -36 32 C-36.99 31.34 -37.98 30.68 -39 30 C-37.22126601 26.44253203 -35.08852168 23.63871933 -31.63671875 21.61328125 C-28.82002333 19.88988094 -26.84170858 18.00577759 -24.5625 15.625 C-21.99166581 12.98132551 -19.46086137 10.46782843 -16.5625 8.1875 C-13.9322418 6.26242719 -13.9322418 6.26242719 -13.0625 3.875 C-10.47678556 -0.68802548 -4.63265565 -1.85306226 0 0 Z " fill="#E9EBEE" transform="translate(94,218)"/>
<path d="M0 0 C0.33 0.99 0.66 1.98 1 3 C0.01 4.485 0.01 4.485 -1 6 C-0.78802979 6.78802002 -0.57605957 7.57604004 -0.35766602 8.38793945 C0 11 0 11 -1.72241211 13.37182617 C-2.56553955 14.17080322 -3.40866699 14.96978027 -4.27734375 15.79296875 C-5.18291016 16.67017578 -6.08847656 17.54738281 -7.02148438 18.45117188 C-7.98376953 19.35416016 -8.94605469 20.25714844 -9.9375 21.1875 C-11.82859579 22.9864242 -13.70980818 24.79491566 -15.58984375 26.60546875 C-16.85622681 27.79885864 -16.85622681 27.79885864 -18.14819336 29.01635742 C-20.22746613 30.79138118 -20.22746613 30.79138118 -20 33 C-22 34.625 -22 34.625 -24 36 C-24.66 35.67 -25.32 35.34 -26 35 C-25.319375 34.4121875 -25.319375 34.4121875 -24.625 33.8125 C-22.87159416 32.07449461 -22.87159416 32.07449461 -22.125 29.70703125 C-20.88042682 26.71227703 -19.3181647 24.46846683 -17.375 21.875 C-16.30958984 20.44414062 -16.30958984 20.44414062 -15.22265625 18.984375 C-14.48917969 17.99953125 -13.75570312 17.0146875 -13 16 C-11.60340752 14.04220798 -10.20754891 12.08389221 -8.8125 10.125 C-6.11003106 6.39911086 -3.40828671 3.08875983 0 0 Z " fill="#BABFC8" transform="translate(102,228)"/>
<path d="M0 0 C0.680625 0.4125 1.36125 0.825 2.0625 1.25 C5.35191348 3.20965058 8.67160863 5.1073853 12 7 C11.37834961 7.24210205 10.75669922 7.4842041 10.11621094 7.73364258 C7.47552573 9.31384957 7.12025803 10.38247295 6.140625 13.26171875 C5.83318359 14.12708252 5.52574219 14.99244629 5.20898438 15.8840332 C4.89251953 16.80917725 4.57605469 17.73432129 4.25 18.6875 C0.91887901 27.96352549 -3.07630365 36.47519595 -8 45 C-8.33 44.34 -8.66 43.68 -9 43 C-8.3190918 41.12402344 -8.3190918 41.12402344 -7.19921875 38.859375 C-6.79896484 38.03566406 -6.39871094 37.21195312 -5.98632812 36.36328125 C-5.55771484 35.50089844 -5.12910156 34.63851562 -4.6875 33.75 C0.1968412 24.91108617 0.1968412 24.91108617 1.8125 15.25 C1.12763856 12.6559571 1.12763856 12.6559571 -2 11 C-2 10.34 -2 9.68 -2 9 C-2.99 8.67 -3.98 8.34 -5 8 C-4.64950425 4.75791433 -4.43778819 3.38472296 -1.9375 1.1875 C-1.298125 0.795625 -0.65875 0.40375 0 0 Z " fill="#546494" transform="translate(120,233)"/>
<path d="M0 0 C1.32 0.66 2.64 1.32 4 2 C3.51421457 5.12290635 3.0013988 7.99580359 2 11 C1.9805726 12.56251811 2.00611493 14.12587873 2.0625 15.6875 C2.12582116 20.47880106 1.35789849 24.4170926 0 29 C-4.81100991 26.53281543 -4.81100991 26.53281543 -5.6484375 24.171875 C-6.01345114 21.91690186 -6.16794379 19.78416525 -6.1875 17.5 C-6.20167969 16.7471875 -6.21585938 15.994375 -6.23046875 15.21875 C-5.97143392 12.72499093 -5.20061569 11.18253186 -4 9 C-3.67 7.989375 -3.34 6.97875 -3 5.9375 C-2 3 -2 3 0 0 Z " fill="#193F96" transform="translate(210,95)"/>
<path d="M0 0 C0.99 0.66 1.98 1.32 3 2 C2.29875 2.556875 1.5975 3.11375 0.875 3.6875 C-4.51927957 8.02637704 -9.60919809 12.41321152 -14.34375 17.46875 C-16 19 -16 19 -19 20 C-19.495 20.845625 -19.99 21.69125 -20.5 22.5625 C-20.995 23.366875 -21.49 24.17125 -22 25 C-22.99 25 -23.98 25 -25 25 C-26.4783226 22.04335481 -26.06032783 19.25770263 -26 16 C-25.113125 16.103125 -24.22625 16.20625 -23.3125 16.3125 C-19.85091442 16.29020476 -19.85091442 16.29020476 -17.25 13.8125 C-14.91458356 11.22627482 -14.91458356 11.22627482 -14.16796875 8.49609375 C-12.66757872 5.28957458 -11.24772147 4.69059943 -8.0625 3.25 C-7.18722656 2.84265625 -6.31195313 2.4353125 -5.41015625 2.015625 C-3 1 -3 1 0 0 Z " fill="#D7DADF" transform="translate(79,222)"/>
<path d="M0 0 C-0.66 1.65 -1.32 3.3 -2 5 C-10.91 5 -19.82 5 -29 5 C-29 4.34 -29 3.68 -29 3 C-20.20347739 -3.75081967 -10.23109323 -3.03143503 0 0 Z " fill="#2A67B6" transform="translate(247,83)"/>
<path d="M0 0 C2 3 2 3 3 6 C2.01 6.33 1.02 6.66 0 7 C-0.33 6.34 -0.66 5.68 -1 5 C-1.6496875 6.7015625 -1.6496875 6.7015625 -2.3125 8.4375 C-2.869375 9.613125 -3.42625 10.78875 -4 12 C-4.99 12.33 -5.98 12.66 -7 13 C-7 13.763125 -7 14.52625 -7 15.3125 C-7 17.20833333 -7 19.10416667 -7 21 C-6.67 21.33 -6.34 21.66 -6 22 C-4.17840398 21.77193501 -2.36609924 21.46742586 -0.5625 21.125 C0.42621094 20.94195312 1.41492188 20.75890625 2.43359375 20.5703125 C4.97189366 20.11510968 4.97189366 20.11510968 7 19 C8.70702735 18.93003986 10.41668003 18.91559846 12.125 18.9375 C13.03507812 18.94652344 13.94515625 18.95554688 14.8828125 18.96484375 C15.58148438 18.97644531 16.28015625 18.98804688 17 19 C17 19.33 17 19.66 17 20 C15.97845825 20.21934204 15.97845825 20.21934204 14.9362793 20.44311523 C11.85297596 21.10617142 8.77023471 21.77180535 5.6875 22.4375 C4.61564453 22.66759766 3.54378906 22.89769531 2.43945312 23.13476562 C0.89741211 23.46831055 0.89741211 23.46831055 -0.67578125 23.80859375 C-1.62364502 24.01282959 -2.57150879 24.21706543 -3.5480957 24.42749023 C-6.11513281 24.98713698 -6.11513281 24.98713698 -9 26 C-11.33299825 26.03954234 -13.66708189 26.04401732 -16 26 C-15.4491978 22.32305556 -14.55943192 19.93900005 -12.3828125 16.93359375 C-11.85816406 16.20076172 -11.33351563 15.46792969 -10.79296875 14.71289062 C-10.24253906 13.96201172 -9.69210938 13.21113281 -9.125 12.4375 C-8.58230469 11.68275391 -8.03960937 10.92800781 -7.48046875 10.15039062 C-5.0224254 6.73978035 -2.52759886 3.35937807 0 0 Z " fill="#696D7B" transform="translate(39,164)"/>
<path d="M0 0 C0.99 0 1.98 0 3 0 C1.125 5.75 1.125 5.75 0 8 C-0.90200988 16.78350607 0.77284041 22.38977201 5.75 29.5 C6.1625 29.995 6.575 30.49 7 31 C4 31 4 31 2.3125 29.5 C1.879375 29.005 1.44625 28.51 1 28 C-0.98 28.66 -2.96 29.32 -5 30 C-1.82460444 33.42578949 -1.82460444 33.42578949 2 36 C2.33 36.99 2.66 37.98 3 39 C5.00016466 40.20882096 5.00016466 40.20882096 7 41 C7 41.66 7 42.32 7 43 C0.72430261 41.09827352 -4.10619078 36.85533029 -7.5 31.3125 C-9 28 -9 28 -8 25 C-6.515 25.99 -6.515 25.99 -5 27 C-3.56220588 22.8663419 -2.90321445 19.57131535 -3.0625 15.1875 C-3.20513668 9.72535418 -1.82559496 5.10731923 0 0 Z " fill="#1B3587" transform="translate(214,96)"/>
<path d="M0 0 C0.495 0.99 0.495 0.99 1 2 C0.00529046 4.57887657 -1.05635441 7.01339973 -2.25 9.5 C-2.60989014 10.25321533 -2.96978027 11.00643066 -3.34057617 11.7824707 C-11.28348235 28.01902622 -21.35110195 45.9319437 -36 57 C-34.58895893 53.82515759 -32.88520416 51.63728471 -30.5 49.125 C-26.93674636 45.17529054 -23.65709028 41.08857328 -20.5 36.8125 C-20.05462891 36.23064941 -19.60925781 35.64879883 -19.15039062 35.04931641 C-16.35358026 31.18888389 -15.61737244 28.72135076 -16 24 C-15.67 23.34 -15.34 22.68 -15 22 C-15.66 21.67 -16.32 21.34 -17 21 C-17 19.68 -17 18.36 -17 17 C-15.68 17 -14.36 17 -13 17 C-13 17.99 -13 18.98 -13 20 C-9.60816956 18.62474195 -8.37030797 17.45462656 -6.89453125 14.12109375 C-6.55099609 13.36505859 -6.20746094 12.60902344 -5.85351562 11.83007812 C-5.50998047 11.04052734 -5.16644531 10.25097656 -4.8125 9.4375 C-4.11222589 7.87300375 -3.4104801 6.30916511 -2.70703125 4.74609375 C-2.25034058 3.70473267 -2.25034058 3.70473267 -1.78442383 2.64233398 C-1 1 -1 1 0 0 Z " fill="#4B4F5A" transform="translate(311,104)"/>
<path d="M0 0 C0.99 0.33 1.98 0.66 3 1 C4.125 6.625 4.125 6.625 3 10 C3.66 10 4.32 10 5 10 C5.33 12.31 5.66 14.62 6 17 C6.94875 17.0825 7.8975 17.165 8.875 17.25 C12 18 12 18 13.4375 19.9375 C14 22 14 22 13 24 C17.29 24.66 21.58 25.32 26 26 C26 26.33 26 26.66 26 27 C19.04399188 27.45283236 13.48277743 27.6877747 8 23 C3.54982613 18.65283942 0.23761521 14.52145741 -0.1953125 8.10546875 C-0.17210937 7.14253906 -0.14890625 6.17960937 -0.125 5.1875 C-0.10695312 4.21167969 -0.08890625 3.23585938 -0.0703125 2.23046875 C-0.04710937 1.49441406 -0.02390625 0.75835937 0 0 Z " fill="#B5CAEE" transform="translate(213,104)"/>
<path d="M0 0 C0.66 0.33 1.32 0.66 2 1 C-0.20979308 3.81939117 -2.40062046 6.53058944 -5 9 C-3.7625 8.6596875 -3.7625 8.6596875 -2.5 8.3125 C1.52729747 7.95291987 3.59507539 8.80554866 7.16796875 10.50390625 C7.77253906 10.66761719 8.37710938 10.83132812 9 11 C9.99 10.34 10.98 9.68 12 9 C13.32 9.99 14.64 10.98 16 12 C4.40816327 15.91836735 4.40816327 15.91836735 -1 15 C-3.59223576 13.23952492 -5.810708 11.23587268 -8 9 C-6.1144852 4.71640327 -3.64034299 2.84896408 0 0 Z " fill="#ABB2BD" transform="translate(130,225)"/>
<path d="M0 0 C0.29296875 3.2578125 0.29296875 3.2578125 0.1875 7.125 C0.16042969 8.40632813 0.13335937 9.68765625 0.10546875 11.0078125 C0.07066406 11.99523437 0.03585937 12.98265625 0 14 C-1.98 14.33 -3.96 14.66 -6 15 C-6.66 9.72 -7.32 4.44 -8 -1 C-3 -2 -3 -2 0 0 Z " fill="#2553A5" transform="translate(263,101)"/>
<path d="M0 0 C1.5 1.375 1.5 1.375 3 3 C3 5 3 5 0.625 7.4375 C-0.674375 8.7059375 -0.674375 8.7059375 -2 10 C-3.93798263 12.77260299 -3.93798263 12.77260299 -5 15 C-6.175625 15.433125 -6.175625 15.433125 -7.375 15.875 C-10.10897688 16.76246159 -10.10897688 16.76246159 -11.33984375 19.0234375 C-13 21 -13 21 -15.48046875 21.609375 C-16.37378906 21.65578125 -17.26710937 21.7021875 -18.1875 21.75 C-19.08855469 21.80671875 -19.98960937 21.8634375 -20.91796875 21.921875 C-21.60503906 21.94765625 -22.29210937 21.9734375 -23 22 C-23 21.01 -23 20.02 -23 19 C-22.3709375 18.79246094 -21.741875 18.58492187 -21.09375 18.37109375 C-11.12018603 14.78121154 -5.02291241 9.29721767 0 0 Z " fill="#BAC5DB" transform="translate(263,122)"/>
<path d="M0 0 C-0.47272773 4.25454953 -2.96437376 6.19204573 -6 9 C-6.33 9.33 -6.66 9.66 -7 10 C-8.66617115 10.04063832 -10.33388095 10.042721 -12 10 C-12.23509196 14.81938524 -11.45184478 18.46298506 -10 23 C-13.61761593 19.87569533 -14.75618341 16.67188517 -15.4375 12 C-14.84065822 7.90737062 -13.11635141 6.62056823 -10 4 C-9.319375 3.4225 -8.63875 2.845 -7.9375 2.25 C-5.31091117 0.55542656 -3.10482127 0 0 0 Z " fill="#81848E" transform="translate(66,229)"/>
<path d="M0 0 C7.70847766 3.73744372 12.48570661 10.58045005 15.35546875 18.45703125 C16.35870095 22.4152383 16.26223089 25.93542117 16 30 C15.67 30 15.34 30 15 30 C14.896875 28.783125 14.79375 27.56625 14.6875 26.3125 C14.23780688 22.58930552 13.21617222 20.08337005 11 17 C10.401875 17.185625 9.80375 17.37125 9.1875 17.5625 C7 18 7 18 4 17 C4 15.35 4 13.7 4 12 C5.32 11.34 6.64 10.68 8 10 C7.01 9.34 6.02 8.68 5 8 C4.67 7.01 4.34 6.02 4 5 C2.67151309 3.99357052 1.33849671 2.99307821 0 2 C0 1.34 0 0.68 0 0 Z " fill="#3D669F" transform="translate(250,83)"/>
<path d="M0 0 C0 3.64659983 -0.95217586 6.50725287 -2 10 C-2.33 11.2375 -2.66 12.475 -3 13.75 C-4 17 -4 17 -6 20 C-6.24270825 23.43307165 -6.24270825 23.43307165 -6.125 27.1875 C-6.10695312 28.45980469 -6.08890625 29.73210937 -6.0703125 31.04296875 C-6.04710937 32.01878906 -6.02390625 32.99460938 -6 34 C-10.1168797 27.82468045 -9.8354358 20.60905684 -8.5390625 13.45703125 C-6.91438357 7.90445207 -4.04847089 4.07467458 0 0 Z " fill="#375A97" transform="translate(211,88)"/>
<path d="M0 0 C2.4375 0.8125 2.4375 0.8125 5 2 C5.33 2.99 5.66 3.98 6 5 C5.50628906 5.31453125 5.01257813 5.6290625 4.50390625 5.953125 C3.86324219 6.38109375 3.22257813 6.8090625 2.5625 7.25 C1.92441406 7.66765625 1.28632813 8.0853125 0.62890625 8.515625 C-1.38763513 10.35324065 -1.51812424 11.33920778 -2 14 C-2.07952806 15.73285648 -2.10774143 17.46847386 -2.09765625 19.203125 C-2.09443359 20.1828125 -2.09121094 21.1625 -2.08789062 22.171875 C-2.07951172 23.18765625 -2.07113281 24.2034375 -2.0625 25.25 C-2.05798828 26.28125 -2.05347656 27.3125 -2.04882812 28.375 C-2.03706088 30.91672573 -2.02062011 33.45833319 -2 36 C-2.33 36 -2.66 36 -3 36 C-3.33 28.08 -3.66 20.16 -4 12 C-5.98 12.66 -7.96 13.32 -10 14 C-10.33 12.68 -10.66 11.36 -11 10 C-9.125 8.9375 -9.125 8.9375 -7 8 C-6.34 8.33 -5.68 8.66 -5 9 C-2.39068734 8.10636395 -2.39068734 8.10636395 0 7 C-0.185625 6.030625 -0.37125 5.06125 -0.5625 4.0625 C-0.706875 3.051875 -0.85125 2.04125 -1 1 C-0.67 0.67 -0.34 0.34 0 0 Z " fill="#7C818D" transform="translate(223,193)"/>
<path d="M0 0 C3.9262145 5.88932175 3.35601073 12.35912779 3.625 19.25 C3.6765625 20.35730469 3.728125 21.46460938 3.78125 22.60546875 C4.02165302 28.55190819 3.96032994 34.12335411 3 40 C1.515 40.495 1.515 40.495 0 41 C-0.103125 42.0725 -0.20625 43.145 -0.3125 44.25 C-0.97400493 47.85820872 -1.57483421 49.36395023 -4 52 C-3.53303023 48.2544109 -2.9550643 44.63644204 -2.02734375 40.9765625 C1.4911118 27.06230745 1.81084856 14.26043245 0 0 Z " fill="#4A4F60" transform="translate(155,250)"/>
<path d="M0 0 C-2.73965294 6.11153348 -7.62618733 9.61984499 -13.625 12.375 C-19.51275663 14.53988282 -25.80757206 14.99906904 -32 14 C-32.66 13.01 -33.32 12.02 -34 11 C-32.53240234 11.05220703 -32.53240234 11.05220703 -31.03515625 11.10546875 C-23.44498553 11.26219794 -17.04554035 11.15834567 -10 8 C-9.67 7.34 -9.34 6.68 -9 6 C-8.01 5.67 -7.02 5.34 -6 5 C-5.30062468 3.68352881 -4.63270867 2.34977849 -4 1 C-2 0 -2 0 0 0 Z " fill="#263373" transform="translate(259,128)"/>
<path d="M0 0 C0.66 0.33 1.32 0.66 2 1 C0.84371094 1.76183594 0.84371094 1.76183594 -0.3359375 2.5390625 C-1.33882812 3.22742188 -2.34171875 3.91578125 -3.375 4.625 C-4.37273437 5.29789063 -5.37046875 5.97078125 -6.3984375 6.6640625 C-9.38109467 9.3421841 -10.12694247 11.13360237 -11 15 C-11.16857483 17.75065232 -11.16857483 17.75065232 -11 20 C-11.99 20 -12.98 20 -14 20 C-14.33 19.34 -14.66 18.68 -15 18 C-18.12197478 19.3089572 -18.12197478 19.3089572 -20 22 C-20.66 22 -21.32 22 -22 22 C-18.12866953 13.54666005 -8.77103266 3.36069041 0 0 Z " fill="#585C68" transform="translate(70,132)"/>
<path d="M0 0 C0.99 0.33 1.98 0.66 3 1 C2.64008282 6.04806914 -0.04398041 8.52239866 -3.5625 11.8125 C-4.08263672 12.31458984 -4.60277344 12.81667969 -5.13867188 13.33398438 C-6.4168857 14.56529127 -7.70727147 15.7839407 -9 17 C-9.99 16.67 -10.98 16.34 -12 16 C-8.34880098 10.29014621 -4.51755454 5.05535865 0 0 Z " fill="#C0C7D1" transform="translate(99,234)"/>
<path d="M0 0 C0.598125 0.78375 1.19625 1.5675 1.8125 2.375 C3.91085249 5.14574323 3.91085249 5.14574323 7 7 C5.73058503 10.91402949 4.48832306 12.79072873 1 15 C-0.32 13.68 -1.64 12.36 -3 11 C-2.34 8.69 -1.68 6.38 -1 4 C-1.66 3.34 -2.32 2.68 -3 2 C-2.01 2 -1.02 2 0 2 C0 1.34 0 0.68 0 0 Z " fill="#B5BAC3" transform="translate(101,212)"/>
<path d="M0 0 C0.66 0 1.32 0 2 0 C0.29055213 3.91828502 -2.26881345 7.14918873 -4.875 10.5 C-5.30941406 11.06847656 -5.74382812 11.63695312 -6.19140625 12.22265625 C-8.10391848 14.69800992 -10.02505727 17.02462375 -12.2578125 19.21875 C-14.23720483 20.98283003 -14.23720483 20.98283003 -15 24 C-15.99 24.33 -16.98 24.66 -18 25 C-18.33 24.01 -18.66 23.02 -19 22 C-17.21653709 18.96811304 -16.40424844 18.13474948 -13 17 C-11.87483915 15.16715557 -11.87483915 15.16715557 -11 13 C-10.0625 10.8125 -10.0625 10.8125 -9 9 C-8.01 8.67 -7.02 8.34 -6 8 C-4.27056525 6.68732044 -4.27056525 6.68732044 -3 5 C-3 4.01 -3 3.02 -3 2 C-2.01 2 -1.02 2 0 2 C0 1.34 0 0.68 0 0 Z " fill="#A0A5B1" transform="translate(290,138)"/>
<path d="M0 0 C1.0209375 0.433125 1.0209375 0.433125 2.0625 0.875 C1.7325 1.865 1.4025 2.855 1.0625 3.875 C-0.26053717 4.2471042 -1.59487935 4.58130173 -2.9375 4.875 C-3.2675 5.535 -3.5975 6.195 -3.9375 6.875 C-5.15709046 7.71275606 -6.41328601 8.49792633 -7.6875 9.25 C-10.98113377 11.24632119 -13.98783291 13.38621839 -16.9375 15.875 C-17.5975 15.545 -18.2575 15.215 -18.9375 14.875 C-15.96723334 11.84411566 -12.96466277 8.84905465 -9.9375 5.875 C-8.95716797 4.90046875 -8.95716797 4.90046875 -7.95703125 3.90625 C-3.61907219 -0.15400307 -3.61907219 -0.15400307 0 0 Z " fill="#E3E6EA" transform="translate(190.9375,67.125)"/>
<path d="M0 0 C0.28875 0.61875 0.5775 1.2375 0.875 1.875 C1.93720042 4.13325765 1.93720042 4.13325765 4 6 C6.61980048 5.83639043 6.61980048 5.83639043 9.5 5.1875 C10.4796875 4.99542969 11.459375 4.80335938 12.46875 4.60546875 C14.97447218 4.10729261 14.97447218 4.10729261 17 3 C18.70702735 2.93003986 20.41668003 2.91559846 22.125 2.9375 C23.03507812 2.94652344 23.94515625 2.95554688 24.8828125 2.96484375 C25.93082031 2.98224609 25.93082031 2.98224609 27 3 C27 3.33 27 3.66 27 4 C16.69468775 6.31761729 6.59452526 8.57706486 -4 9 C-3.23596585 5.52846619 -1.91813089 3.00229182 0 0 Z " fill="#646978" transform="translate(29,180)"/>
<path d="M0 0 C0.99 0.33 1.98 0.66 3 1 C2.01 1.33 1.02 1.66 0 2 C0 1.34 0 0.68 0 0 Z M-2 1 C-1.34 1.66 -0.68 2.32 0 3 C-0.48210937 3.39832031 -0.96421875 3.79664063 -1.4609375 4.20703125 C-2.09257813 4.73683594 -2.72421875 5.26664063 -3.375 5.8125 C-4.00148438 6.33457031 -4.62796875 6.85664063 -5.2734375 7.39453125 C-7.2221048 9.08225739 -7.2221048 9.08225739 -9 12 C-8.67 12.66 -8.34 13.32 -8 14 C-8.66 14 -9.32 14 -10 14 C-10.33 14.66 -10.66 15.32 -11 16 C-14 16 -14 16 -17 14 C-15.44395612 12.38957012 -13.87987244 10.78690632 -12.3125 9.1875 C-11.44238281 8.29417969 -10.57226562 7.40085938 -9.67578125 6.48046875 C-7.22637818 4.20985423 -4.92414297 2.58588655 -2 1 Z " fill="#949DAB" transform="translate(120,223)"/>
<path d="M0 0 C1.67542976 0.28604898 3.34385343 0.61781233 5 1 C4.06752441 1.36315308 4.06752441 1.36315308 3.11621094 1.73364258 C0.47552573 3.31384957 0.12025803 4.38247295 -0.859375 7.26171875 C-1.16681641 8.12708252 -1.47425781 8.99244629 -1.79101562 9.8840332 C-2.10748047 10.80917725 -2.42394531 11.73432129 -2.75 12.6875 C-6.08112099 21.96352549 -10.07630365 30.47519595 -15 39 C-15.33 38.34 -15.66 37.68 -16 37 C-15.38256836 35.29858398 -15.38256836 35.29858398 -14.33984375 33.24609375 C-13.96085937 32.48151855 -13.581875 31.71694336 -13.19140625 30.92919922 C-12.77761719 30.10693848 -12.36382812 29.28467773 -11.9375 28.4375 C-8.04185435 20.50164373 -4.87914275 12.53094081 -2.09375 4.1484375 C-1 1 -1 1 0 0 Z " fill="#191D2B" transform="translate(127,239)"/>
<path d="M0 0 C3.375 0.3125 3.375 0.3125 7 1 C9 4 9 4 9 7 C9.886875 7.04125 10.77375 7.0825 11.6875 7.125 C16.21629527 8.32128554 17.29643492 10.26271887 20 14 C11.93467086 12.53875213 4.62675449 6.54127358 0 0 Z " fill="#4C525D" transform="translate(75,274)"/>
<path d="M0 0 C1.32 0 2.64 0 4 0 C4.2475 0.969375 4.495 1.93875 4.75 2.9375 C5.62203831 6.08098781 5.62203831 6.08098781 7.8125 6.8125 C8.534375 6.874375 9.25625 6.93625 10 7 C10.7425 7.2475 11.485 7.495 12.25 7.75 C15.75812937 8.06892085 17.9662105 7.02303339 21.1328125 5.59375 C23 5 23 5 26 6 C20.326858 8.45417612 15.18160604 10.46246904 9 11 C8.67 12.32 8.34 13.64 8 15 C7.16235732 13.04350603 6.33000941 11.08474444 5.5 9.125 C5.0359375 8.03445312 4.571875 6.94390625 4.09375 5.8203125 C3 3 3 3 3 1 C2.01 0.67 1.02 0.34 0 0 Z " fill="#636A76" transform="translate(146,235)"/>
<path d="M0 0 C0 3.97642924 -0.99359714 5.95765418 -3.75 8.8125 C-4.4925 9.534375 -5.235 10.25625 -6 11 C-7.00935252 12.15858474 -8.00868608 13.32594386 -9 14.5 C-13.09004855 19.27513169 -15.72833969 22.28954719 -22 24 C-21.34 23.34 -20.68 22.68 -20 22 C-19.54109375 21.53851563 -19.0821875 21.07703125 -18.609375 20.6015625 C-17.4841759 19.48182553 -16.34776812 18.37329023 -15.203125 17.2734375 C-9.65946306 11.88499809 -4.80474327 6.05041744 0 0 Z " fill="#BCC2CF" transform="translate(163,193)"/>
<path d="M0 0 C0.83853516 -0.020625 1.67707031 -0.04125 2.54101562 -0.0625 C8.08265254 -0.09710819 11.87624399 0.71173575 16.8125 3.25 C15.8225 4.735 15.8225 4.735 14.8125 6.25 C14.1525 5.92 13.4925 5.59 12.8125 5.25 C7.20325319 3.17701748 2.2508542 3.10721818 -3.7109375 3.27734375 C-6.1875 3.25 -6.1875 3.25 -7.1875 2.25 C-8.51344105 1.88837971 -9.84688457 1.55271961 -11.1875 1.25 C-7.72008641 -0.48370679 -3.82052982 0.02296336 0 0 Z " fill="#4372A5" transform="translate(233.1875,78.75)"/>
<path d="M0 0 C0.66 0 1.32 0 2 0 C0.58319756 4.32046898 -1.53763785 7.00461199 -4.625 10.3125 C-5.44226563 11.19550781 -6.25953125 12.07851562 -7.1015625 12.98828125 C-7.72804687 13.65214844 -8.35453125 14.31601563 -9 15 C-9.66 14.67 -10.32 14.34 -11 14 C-10.67 13.01 -10.34 12.02 -10 11 C-10.66 10.67 -11.32 10.34 -12 10 C-9.46382 7.28266428 -7.2911215 5.64556075 -4 4 C-3.29875 3.29875 -2.5975 2.5975 -1.875 1.875 C-1.25625 1.25625 -0.6375 0.6375 0 0 Z " fill="#8C93A4" transform="translate(159,194)"/>
<path d="M0 0 C0.66 0.99 1.32 1.98 2 3 C1.67 3.66 1.34 4.32 1 5 C4.63 5 8.26 5 12 5 C11.67 7.31 11.34 9.62 11 12 C10.67 11.01 10.34 10.02 10 9 C7.88308225 8.0666204 7.88308225 8.0666204 5.25 7.5 C3.77853516 7.13455078 3.77853516 7.13455078 2.27734375 6.76171875 C1.19582031 6.51035156 0.11429688 6.25898438 -1 6 C-2.19496094 5.71769531 -3.38992187 5.43539062 -4.62109375 5.14453125 C-7.74446303 4.41585912 -10.87044131 3.70153859 -14 3 C-14 2.67 -14 2.34 -14 2 C-9.1666528 1.91666643 -4.76307437 2.04738513 0 3 C0 2.01 0 1.02 0 0 Z " fill="#737782" transform="translate(92,181)"/>
<path d="M0 0 C0 5.63483242 -3.2916948 8.94673617 -7 13 C-9.5 14.625 -9.5 14.625 -12 16 C-13.68477344 17.31037934 -15.35648543 18.63823078 -17 20 C-17.66 19.67 -18.32 19.34 -19 19 C-12.66666667 12.66666667 -6.33333333 6.33333333 0 0 Z " fill="#B0B8BF" transform="translate(173,168)"/>
<path d="M0 0 C0.99 0.33 1.98 0.66 3 1 C4.125 6.625 4.125 6.625 3 10 C3.66 10 4.32 10 5 10 C5.1953125 11.98567708 5.390625 13.97135417 5.5859375 15.95703125 C5.92665391 18.29988142 5.92665391 18.29988142 8 21 C3.89361294 19.26600042 2.60873994 17.38396792 0.75 13.44140625 C-0.60758793 9.02217472 -0.30240096 4.56961455 0 0 Z " fill="#BFD3F3" transform="translate(213,104)"/>
<path d="M0 0 C0.66 0.33 1.32 0.66 2 1 C-0.78358481 3.84137242 -3.57815727 6.67168155 -6.375 9.5 C-7.1690625 10.31082031 -7.963125 11.12164062 -8.78125 11.95703125 C-9.92207031 13.10751953 -9.92207031 13.10751953 -11.0859375 14.28125 C-11.7876709 14.99345703 -12.4894043 15.70566406 -13.21240234 16.43945312 C-15 18 -15 18 -17 18 C-16.33333333 16.66666667 -15.66666667 15.33333333 -15 14 C-14.690625 13.278125 -14.38125 12.55625 -14.0625 11.8125 C-13 10 -13 10 -10 9 C-8.6434836 7.69026002 -7.31442362 6.35197858 -6 5 C-4.0290625 3.29540541 -2.01711635 1.65036792 0 0 Z " fill="#E8EDF1" transform="translate(147,192)"/>
<path d="M0 0 C4.56146656 3.80122213 5.59491564 7.64050034 6.29296875 13.4296875 C6.66079645 19.97105583 5.27954445 23.07852388 1 28 C0.34 27.67 -0.32 27.34 -1 27 C-0.34 25.88625 0.32 24.7725 1 23.625 C4.28217136 17.00225566 3.76293452 10.77207795 1.5 3.875 C1.01514777 2.57757135 0.52080741 1.28341826 0 0 Z " fill="#274880" transform="translate(251,96)"/>
<path d="M0 0 C0.99 0.33 1.98 0.66 3 1 C1.68 4.3 0.36 7.6 -1 11 C-6.78461538 6.56923077 -6.78461538 6.56923077 -7.875 3.6875 C-7.91625 3.130625 -7.9575 2.57375 -8 2 C-6.0085944 1.61866701 -4.00720923 1.28674418 -2 1 C-1.67 1.33 -1.34 1.66 -1 2 C-0.67 1.34 -0.34 0.68 0 0 Z " fill="#4D5A86" transform="translate(125,238)"/>
<path d="M0 0 C3 2 3 2 3.8125 4.375 C5.40951002 7.90523268 7.78815101 8.94988362 11 11 C11.33 11.99 11.66 12.98 12 14 C14.00016466 15.20882096 14.00016466 15.20882096 16 16 C16 16.66 16 17.32 16 18 C9.73473528 16.10143493 4.89317176 11.88724138 1.5625 6.3125 C0 3 0 3 0 0 Z " fill="#283573" transform="translate(205,121)"/>
<path d="M0 0 C2.9375 0.8125 2.9375 0.8125 6 2 C6.33 2.99 6.66 3.98 7 5 C7.66 5.33 8.32 5.66 9 6 C8.67 8.97 8.34 11.94 8 15 C4.33101383 10.59721659 1.80494714 5.41484143 0 0 Z " fill="#E2EEF7" transform="translate(258,88)"/>
<path d="M0 0 C3.625 0.375 3.625 0.375 7 1 C5.77974937 4.6607519 4.873509 4.92339441 1.5625 6.6875 C0.35787109 7.34298828 0.35787109 7.34298828 -0.87109375 8.01171875 C-3 9 -3 9 -5 9 C-4.67 8.01 -4.34 7.02 -4 6 C-3.34 6.33 -2.68 6.66 -2 7 C-2.061875 5.824375 -2.061875 5.824375 -2.125 4.625 C-2 2 -2 2 0 0 Z " fill="#707584" transform="translate(178,290)"/>
<path d="M0 0 C0.66 0 1.32 0 2 0 C2 3.3 2 6.6 2 10 C0.02 10.33 -1.96 10.66 -4 11 C-4 9.02 -4 7.04 -4 5 C-3.34 5 -2.68 5 -2 5 C-1.34 3.35 -0.68 1.7 0 0 Z " fill="#1D479C" transform="translate(261,105)"/>
<path d="M0 0 C2 3.75 2 3.75 2 6 C1.34 6.66 0.68 7.32 0 8 C-0.67940467 10.42715206 -0.67940467 10.42715206 -1.125 13.125 C-1.29257813 14.03507813 -1.46015625 14.94515625 -1.6328125 15.8828125 C-1.75398438 16.58148438 -1.87515625 17.28015625 -2 18 C-1.34 18.33 -0.68 18.66 0 19 C-0.99 19 -1.98 19 -3 19 C-4 18 -4 18 -4.3125 14.5625 C-4.28347939 9.23238175 -2.19219987 4.775864 0 0 Z " fill="#E9EAED" transform="translate(103,192)"/>
<path d="M0 0 C0.33 0 0.66 0 1 0 C1.09507063 6.43311296 1.15316726 12.65758005 0 19 C-0.33 19 -0.66 19 -1 19 C-1.33 15.04 -1.66 11.08 -2 7 C-3.32 7 -4.64 7 -6 7 C-5.67 6.01 -5.34 5.02 -5 4 C-2.4375 2.8125 -2.4375 2.8125 0 2 C0 1.34 0 0.68 0 0 Z " fill="#E3E5ED" transform="translate(219,218)"/>
<path d="M0 0 C0.66 0 1.32 0 2 0 C0.44533803 4.08332902 -2.25087844 6.08208993 -5.625 8.75 C-6.62789062 9.54921875 -7.63078125 10.3484375 -8.6640625 11.171875 C-9.43492187 11.77515625 -10.20578125 12.3784375 -11 13 C-11.66 12.67 -12.32 12.34 -13 12 C-11.47793991 9.37098712 -10.15634036 7.15634036 -8 5 C-8 5.66 -8 6.32 -8 7 C-7.34 7 -6.68 7 -6 7 C-5.67 5.68 -5.34 4.36 -5 3 C-4.360625 2.87625 -3.72125 2.7525 -3.0625 2.625 C-2.381875 2.41875 -1.70125 2.2125 -1 2 C-0.67 1.34 -0.34 0.68 0 0 Z " fill="#4F5360" transform="translate(255,177)"/>
<path d="M0 0 C0.66 0.66 1.32 1.32 2 2 C1.34 3.98 0.68 5.96 0 8 C-0.99 7.67 -1.98 7.34 -3 7 C-3.99 7.495 -3.99 7.495 -5 8 C-5.33 8.99 -5.66 9.98 -6 11 C-6.66 10.34 -7.32 9.68 -8 9 C-5.89851796 5.01824456 -3.63094642 2.64960955 0 0 Z " fill="#A1A7B2" transform="translate(66,136)"/>
<path d="M0 0 C0.33 0 0.66 0 1 0 C1 6.93 1 13.86 1 21 C-1.78622674 16.82065988 -2.15730954 13.92708255 -2.1875 9 C-2.20167969 7.948125 -2.21585938 6.89625 -2.23046875 5.8125 C-2 3 -2 3 0 0 Z " fill="#354981" transform="translate(204,101)"/>
<path d="M0 0 C1.20911995 3.62735984 0.67930825 4.6393849 -0.6875 8.125 C-1.02136719 9.01445312 -1.35523438 9.90390625 -1.69921875 10.8203125 C-3 13 -3 13 -5.14453125 13.8046875 C-5.75683594 13.86914062 -6.36914062 13.93359375 -7 14 C-7.33 13.34 -7.66 12.68 -8 12 C-7.071875 10.88625 -7.071875 10.88625 -6.125 9.75 C-4.37867611 7.49005144 -3.19314902 5.5567479 -2 3 C-1.34 2.01 -0.68 1.02 0 0 Z " fill="#A5ADB5" transform="translate(174,168)"/>
<path d="M0 0 C2.56278699 -0.05420701 5.12441483 -0.09377007 7.6875 -0.125 C8.40873047 -0.14175781 9.12996094 -0.15851563 9.87304688 -0.17578125 C14.02508025 -0.21369936 17.3424503 -0.04931356 21 2 C21.99 3.485 21.99 3.485 23 5 C22.443125 4.7834375 21.88625 4.566875 21.3125 4.34375 C13.30323324 1.42144997 7.1223102 1.29256327 -1 4 C-0.67 2.68 -0.34 1.36 0 0 Z " fill="#3C6390" transform="translate(224,88)"/>
<path d="M0 0 C1 3 1 3 -0.43359375 6.13671875 C-1.09135973 7.3260128 -1.75977815 8.50946371 -2.4375 9.6875 C-2.77587891 10.29400391 -3.11425781 10.90050781 -3.46289062 11.52539062 C-4.29957915 13.0220025 -5.14862831 14.51169189 -6 16 C-6.66 14.68 -7.32 13.36 -8 12 C-7.34 11.01 -6.68 10.02 -6 9 C-5.34 9 -4.68 9 -4 9 C-3.566875 7.329375 -3.566875 7.329375 -3.125 5.625 C-2 2 -2 2 0 0 Z " fill="#969EAB" transform="translate(117,261)"/>
<path d="M0 0 C1.32 0 2.64 0 4 0 C3.67 0.99 3.34 1.98 3 3 C2.34 3 1.68 3 1 3 C-0.51199628 4.7927642 -0.51199628 4.7927642 -2 7 C-3.5625 9.25 -3.5625 9.25 -5 11 C-5.66 11 -6.32 11 -7 11 C-7.33 10.01 -7.66 9.02 -8 8 C-7.34 7.34 -6.68 6.68 -6 6 C-5.01 6 -4.02 6 -3 6 C-3 5.34 -3 4.68 -3 4 C-2.34 4 -1.68 4 -1 4 C-0.67 2.68 -0.34 1.36 0 0 Z " fill="#D5D8DB" transform="translate(125,126)"/>
<path d="M0 0 C-4.99011142 3.80824293 -9.95616788 5.42334814 -16 7 C-6.17699115 -3.08849558 -6.17699115 -3.08849558 0 0 Z " fill="#35629B" transform="translate(228,81)"/>
<path d="M0 0 C-2.2639961 2.46717524 -4.59060244 4.10134139 -7.5 5.75 C-8.66015625 6.42289062 -8.66015625 6.42289062 -9.84375 7.109375 C-12 8 -12 8 -15 7 C-13.35 6.34 -11.7 5.68 -10 5 C-10 3.68 -10 2.36 -10 1 C-6.59437148 0.22157062 -3.49234244 -0.09978121 0 0 Z " fill="#4F5362" transform="translate(170,301)"/>
<path d="M0 0 C-2.97 2.64 -5.94 5.28 -9 8 C-10 5 -10 5 -9.4375 2.9375 C-7.1494271 -0.14642434 -3.56879557 -1.78439778 0 0 Z " fill="#9499A7" transform="translate(198,281)"/>
<path d="M0 0 C-0.66 1.98 -1.32 3.96 -2 6 C-4.88575819 5.60196439 -5.82189513 5.20990931 -7.75 2.9375 C-8.1625 2.298125 -8.575 1.65875 -9 1 C-5.8035914 -0.06546953 -3.34252724 -0.07427838 0 0 Z " fill="#C2C6CD" transform="translate(101,215)"/>
<path d="M0 0 C1.17691406 0.07863281 2.35382813 0.15726563 3.56640625 0.23828125 C4.51386719 0.38652344 5.46132812 0.53476563 6.4375 0.6875 C6.7675 1.3475 7.0975 2.0075 7.4375 2.6875 C5.33557303 2.93637295 3.23076036 3.1609719 1.125 3.375 C-0.04675781 3.50261719 -1.21851563 3.63023437 -2.42578125 3.76171875 C-5.5625 3.6875 -5.5625 3.6875 -7.48046875 2.20703125 C-7.83753906 1.70558594 -8.19460937 1.20414063 -8.5625 0.6875 C-5.64018196 -0.77365902 -3.23492061 -0.23791403 0 0 Z " fill="#CCD4E7" transform="translate(231.5625,141.3125)"/>
<path d="M0 0 C-1.98943504 4.48598097 -4.86658535 7.38131494 -9 10 C-12.4375 10.375 -12.4375 10.375 -15 10 C-15 9.67 -15 9.34 -15 9 C-14.195625 8.87625 -13.39125 8.7525 -12.5625 8.625 C-11.716875 8.41875 -10.87125 8.2125 -10 8 C-9.67 7.34 -9.34 6.68 -9 6 C-8.01 5.67 -7.02 5.34 -6 5 C-5.30062468 3.68352881 -4.63270867 2.34977849 -4 1 C-2 0 -2 0 0 0 Z " fill="#1A2A73" transform="translate(259,128)"/>
<path d="M0 0 C0.66 0 1.32 0 2 0 C0.64978174 4.41889613 -1.26115668 6.34345343 -5 9 C-5.66 8.67 -6.32 8.34 -7 8 C-7.625 5.9375 -7.625 5.9375 -8 4 C-5 3 -5 3 -1 3 C-0.67 2.01 -0.34 1.02 0 0 Z " fill="#315E9F" transform="translate(222,88)"/>
<path d="M0 0 C2.475 0.99 2.475 0.99 5 2 C1.16295224 4.55803184 -2.75712791 6.34505724 -7.4375 5.625 C-7.953125 5.41875 -8.46875 5.2125 -9 5 C-8.34 5 -7.68 5 -7 5 C-7 4.34 -7 3.68 -7 3 C-5.5459375 2.5359375 -5.5459375 2.5359375 -4.0625 2.0625 C-1.15934208 1.30476658 -1.15934208 1.30476658 0 0 Z " fill="#606470" transform="translate(141,234)"/>
<path d="M0 0 C0.33 0.66 0.66 1.32 1 2 C0.00390625 4.1640625 0.00390625 4.1640625 -1.4375 6.625 C-1.91058594 7.44226563 -2.38367188 8.25953125 -2.87109375 9.1015625 C-3.24363281 9.72804687 -3.61617187 10.35453125 -4 11 C-1.36 10.67 1.28 10.34 4 10 C0.3558226 12.4294516 -1.71241272 12.16179575 -6 12 C-5.54300722 6.97307937 -3.00758252 3.85103739 0 0 Z " fill="#22314A" transform="translate(29,178)"/>
<path d="M0 0 C2.31 0 4.62 0 7 0 C10 5.75 10 5.75 10 8 C9.34 8 8.68 8 8 8 C7.34 6.02 6.68 4.04 6 2 C3.69 2.33 1.38 2.66 -1 3 C-0.67 2.01 -0.34 1.02 0 0 Z M8 0 C10 1 10 1 10 1 Z " fill="#9DA3AE" transform="translate(144,233)"/>
<path d="M0 0 C1.98 0 3.96 0 6 0 C2.98647142 4.52029288 -1.77047104 5.95409421 -7 7 C-6.25 5.0625 -6.25 5.0625 -5 3 C-2.9375 2.375 -2.9375 2.375 -1 2 C-0.67 1.34 -0.34 0.68 0 0 Z " fill="#ACB2BB" transform="translate(203,210)"/>
<path d="M0 0 C0.33 0 0.66 0 1 0 C1.53449652 7.24539726 0.71607548 11.72912263 -3 18 C-4.31223496 14.06329512 -3.24296256 11.87511856 -2 8 C-1.67 8 -1.34 8 -1 8 C-0.67 5.36 -0.34 2.72 0 0 Z " fill="#BDD1EB" transform="translate(254,105)"/>
<path d="M0 0 C0.33 0 0.66 0 1 0 C0.57045059 6.25107435 -0.01401507 12.04204521 -2 18 C-2.33 18 -2.66 18 -3 18 C-3.31985731 11.28299653 -2.4793824 6.24273068 0 0 Z " fill="#4D535A" transform="translate(321,67)"/>
<path d="M0 0 C0.66 0.33 1.32 0.66 2 1 C-1.75 5.875 -1.75 5.875 -4 7 C-4 8.32 -4 9.64 -4 11 C-5.32 10.34 -6.64 9.68 -8 9 C-6.4169423 4.7257442 -3.49431596 2.73468206 0 0 Z " fill="#B4BDCB" transform="translate(130,225)"/>
<path d="M0 0 C0 0.99 0 1.98 0 3 C-2.5 5.1875 -2.5 5.1875 -5 7 C-6.32 6.34 -7.64 5.68 -9 5 C-6.47043472 1.9083091 -3.77545388 1.09068668 0 0 Z " fill="#F0F4F7" transform="translate(173,166)"/>
<path d="M0 0 C0 0.99 0 1.98 0 3 C-1.75 4.60546875 -1.75 4.60546875 -4 6.1875 C-4.7425 6.71730469 -5.485 7.24710938 -6.25 7.79296875 C-6.8275 8.19128906 -7.405 8.58960938 -8 9 C-8.33 8.01 -8.66 7.02 -9 6 C-3.85714286 0.42857143 -3.85714286 0.42857143 0 0 Z " fill="#4F525E" transform="translate(273,162)"/>
<path d="M0 0 C0.66 0.66 1.32 1.32 2 2 C1.195625 2.763125 0.39125 3.52625 -0.4375 4.3125 C-3.16799024 6.79430898 -3.16799024 6.79430898 -4 10 C-4.99 10.33 -5.98 10.66 -7 11 C-7.33 10.01 -7.66 9.02 -8 8 C-6.21653709 4.96811304 -5.40424844 4.13474948 -2 3 C-1.34 2.01 -0.68 1.02 0 0 Z " fill="#8E94A1" transform="translate(279,152)"/>
<path d="M0 0 C2.31 0.33 4.62 0.66 7 1 C7.66 2.65 8.32 4.3 9 6 C5.32579134 5.69381595 4.21864487 5.24228216 1.6875 2.4375 C1.130625 1.633125 0.57375 0.82875 0 0 Z " fill="#757A85" transform="translate(75,274)"/>
<path d="M0 0 C0 3 0 3 -2.25 5.5625 C-4.51797524 7.57275078 -6.23189141 8.87225206 -9 10 C-9.66 9.34 -10.32 8.68 -11 8 C-7.37 5.36 -3.74 2.72 0 0 Z " fill="#B6BECA" transform="translate(110,240)"/>
<path d="M0 0 C0.66 0 1.32 0 2 0 C3.625 2.75 3.625 2.75 5 6 C4.1875 8.375 4.1875 8.375 3 10 C2.01 9.67 1.02 9.34 0 9 C0.33 7.35 0.66 5.7 1 4 C0.34 3.67 -0.32 3.34 -1 3 C-0.67 2.01 -0.34 1.02 0 0 Z " fill="#E8EEF4" transform="translate(205,126)"/>
<path d="M0 0 C1.32 0 2.64 0 4 0 C4 0.66 4 1.32 4 2 C2.68946944 3.02970259 1.35113205 4.02418241 0 5 C-1.35197858 6.31442362 -2.69026002 7.6434836 -4 9 C-4.33 8.01 -4.66 7.02 -5 6 C-2.8125 2.8125 -2.8125 2.8125 0 0 Z " fill="#E4E7EC" transform="translate(152,103)"/>
<path d="M0 0 C0.33 1.32 0.66 2.64 1 4 C0.0409375 4.37125 0.0409375 4.37125 -0.9375 4.75 C-3.18741541 5.81562433 -3.18741541 5.81562433 -3.75 8.125 C-3.8325 8.74375 -3.915 9.3625 -4 10 C-4.99 10 -5.98 10 -7 10 C-5.33248852 6.05860922 -2.77289351 3.2107188 0 0 Z " fill="#646876" transform="translate(47,154)"/>
<path d="M0 0 C0.99 0 1.98 0 3 0 C2.71125 0.78375 2.4225 1.5675 2.125 2.375 C0.73239716 6.8622758 -0.14271981 11.385279 -1 16 C-1.66 15.34 -2.32 14.68 -3 14 C-2.61765316 9.12507777 -1.4234304 4.64987264 0 0 Z " fill="#2D4E89" transform="translate(214,96)"/>
<path d="M0 0 C1.79341438 4.16673521 0.01173384 7.74663341 -1.4375 11.75 C-1.68048828 12.44738281 -1.92347656 13.14476563 -2.17382812 13.86328125 C-2.77310248 15.57885098 -3.38529885 17.28989715 -4 19 C-5.27777294 15.39668031 -4.6976892 13.05413562 -3.625 9.4375 C-3.34914063 8.48746094 -3.07328125 7.53742188 -2.7890625 6.55859375 C-1.10816777 1.10816777 -1.10816777 1.10816777 0 0 Z " fill="#484A54" transform="translate(317,85)"/>
<path d="M0 0 C1.32 0.33 2.64 0.66 4 1 C0.75518249 3.16321167 -2.35055759 4.6314591 -6 6 C-6.99 5.67 -7.98 5.34 -9 5 C-8.34 5 -7.68 5 -7 5 C-6.34 3.68 -5.68 2.36 -5 1 C-3.35 1.33 -1.7 1.66 0 2 C0 1.34 0 0.68 0 0 Z " fill="#9AA1AA" transform="translate(182,234)"/>
<path d="M0 0 C0.33 0.66 0.66 1.32 1 2 C0.0625 4.625 0.0625 4.625 -1 7 C-3.875 7.125 -3.875 7.125 -7 7 C-7.66 6.34 -8.32 5.68 -9 5 C-8.2575 4.9175 -7.515 4.835 -6.75 4.75 C-3.48778646 3.8603054 -2.19045122 2.51496251 0 0 Z " fill="#C4C8D1" transform="translate(93,177)"/>
<path d="M0 0 C0.77772405 2.33317216 1.42415568 4.61435923 2 7 C1.360625 7.103125 0.72125 7.20625 0.0625 7.3125 C-0.618125 7.539375 -1.29875 7.76625 -2 8 C-2.33 8.99 -2.66 9.98 -3 11 C-3.32613618 6.32538149 -2.70582788 3.83325617 0 0 Z " fill="#CDE4F7" transform="translate(217,97)"/>
<path d="M0 0 C-0.75 1.9375 -0.75 1.9375 -2 4 C-3.32594105 4.36162029 -4.65938457 4.69728039 -6 5 C-6.33 5.99 -6.66 6.98 -7 8 C-7.99 7.67 -8.98 7.34 -10 7 C-3.18421053 0 -3.18421053 0 0 0 Z " fill="#C2C7D3" transform="translate(89,256)"/>
<path d="M0 0 C0.66 0 1.32 0 2 0 C2 1.32 2 2.64 2 4 C1.34 4 0.68 4 0 4 C0 4.66 0 5.32 0 6 C-2.5 7.625 -2.5 7.625 -5 9 C-3.7580393 5.56072421 -2.44259716 2.74792181 0 0 Z " fill="#E8EBED" transform="translate(143,115)"/>
<path d="M0 0 C-0.33 0.99 -0.66 1.98 -1 3 C-1.66 3 -2.32 3 -3 3 C-3.33 4.32 -3.66 5.64 -4 7 C-7 3.25 -7 3.25 -7 1 C-3.375 -1.125 -3.375 -1.125 0 0 Z " fill="#9CA4AF" transform="translate(260,170)"/>
<path d="M0 0 C0.6875 1.8125 0.6875 1.8125 1 4 C-0.125 5.8125 -0.125 5.8125 -2 7 C-4.6875 6.6875 -4.6875 6.6875 -7 6 C-6.21625 5.38125 -5.4325 4.7625 -4.625 4.125 C-2.03162353 2.10141339 -2.03162353 2.10141339 0 0 Z " fill="#233783" transform="translate(249,124)"/>
<path d="M0 0 C2.35953094 2.35953094 2.49141413 3.77895617 3 7 C1.35 7.66 -0.3 8.32 -2 9 C-1.34 6.03 -0.68 3.06 0 0 Z " fill="#8C929F" transform="translate(152,299)"/>
<path d="M0 0 C1.32 0.33 2.64 0.66 4 1 C3.67 2.98 3.34 4.96 3 7 C2.01 7 1.02 7 0 7 C0 4.69 0 2.38 0 0 Z " fill="#CCD0D9" transform="translate(53,238)"/>
<path d="M0 0 C1.65 0.99 3.3 1.98 5 3 C4.01 3.66 3.02 4.32 2 5 C1.67 4.67 1.34 4.34 1 4 C-1.00720923 4.28674418 -3.0085944 4.61866701 -5 5 C-3.35 3.35 -1.7 1.7 0 0 Z " fill="#5B6A90" transform="translate(120,233)"/>
<path d="M0 0 C0 3.62453269 -0.92469613 5.07920195 -3 8 C-3.99 8.33 -4.98 8.66 -6 9 C-6 6 -6 6 -4.6875 4.39453125 C-4.130625 3.87246094 -3.57375 3.35039062 -3 2.8125 C-2.443125 2.28269531 -1.88625 1.75289062 -1.3125 1.20703125 C-0.6628125 0.60955078 -0.6628125 0.60955078 0 0 Z " fill="#A9B0B8" transform="translate(149,192)"/>
<path d="M0 0 C0.66 0.66 1.32 1.32 2 2 C0.68 3.32 -0.64 4.64 -2 6 C-1.67 6.99 -1.34 7.98 -1 9 C-1.99 9.495 -1.99 9.495 -3 10 C-3.99 8.68 -4.98 7.36 -6 6 C-4.02 4.02 -2.04 2.04 0 0 Z " fill="#9199A9" transform="translate(99,241)"/>
<path d="M0 0 C0.33 0.66 0.66 1.32 1 2 C-0.65 3.65 -2.3 5.3 -4 7 C-4.99 6.67 -5.98 6.34 -7 6 C-4.69 4.02 -2.38 2.04 0 0 Z " fill="#A2AAB3" transform="translate(130,211)"/>
<path d="M0 0 C1.32 0.33 2.64 0.66 4 1 C2.66667905 4.99996286 0.5042173 5.83782337 -3 8 C-3 4 -3 4 -1.5 2.3125 C-0.7575 1.6628125 -0.7575 1.6628125 0 1 C0 0.67 0 0.34 0 0 Z " fill="#C9CED2" transform="translate(116,137)"/>
<path d="M0 0 C0.66 0.33 1.32 0.66 2 1 C1.67 1.99 1.34 2.98 1 4 C1.99 4.33 2.98 4.66 4 5 C3.01 6.98 2.02 8.96 1 11 C0 8 0 8 0 6 C-0.33 5.34 -0.66 4.68 -1 4 C-0.5625 1.875 -0.5625 1.875 0 0 Z " fill="#B0B8C1" transform="translate(301,112)"/>
<path d="M0 0 C1.32 0.99 2.64 1.98 4 3 C3.67 4.32 3.34 5.64 3 7 C1.0625 6.1875 1.0625 6.1875 -1 5 C-1.33 4.01 -1.66 3.02 -2 2 C-1.34 1.34 -0.68 0.68 0 0 Z " fill="#2854A8" transform="translate(211,90)"/>
<path d="M0 0 C0.66 0.33 1.32 0.66 2 1 C0.35 2.98 -1.3 4.96 -3 7 C-4.32 6.34 -5.64 5.68 -7 5 C-6.67 4.34 -6.34 3.68 -6 3 C-4.66923011 2.65657551 -3.33568021 2.32380126 -2 2 C-1.34 1.34 -0.68 0.68 0 0 Z " fill="#F2F5F6" transform="translate(62,243)"/>
<path d="M0 0 C0.33 0.66 0.66 1.32 1 2 C-3.455 2.495 -3.455 2.495 -8 3 C-8 2.01 -8 1.02 -8 0 C-4.97878489 -0.97110486 -2.99536737 -1.13617383 0 0 Z " fill="#C1CADE" transform="translate(248,141)"/>
<path d="M0 0 C1.64826111 2.96687001 2.44271087 5.65626525 3 9 C2.01 9.33 1.02 9.66 0 10 C-0.95024979 6.30458414 -0.95024979 3.69541586 0 0 Z " fill="#BCC8DF" transform="translate(265,113)"/>
<path d="M0 0 C0.66 0.66 1.32 1.32 2 2 C1.625 4.125 1.625 4.125 1 6 C-0.9375 5.6875 -0.9375 5.6875 -3 5 C-3.33 4.01 -3.66 3.02 -4 2 C-2.68 2 -1.36 2 0 2 C0 1.34 0 0.68 0 0 Z " fill="#3A65A2" transform="translate(261,94)"/>
<path d="M0 0 C0 0.99 0 1.98 0 3 C-2.85131007 4.98007644 -5.8988485 6.45605064 -9 8 C-8.07038578 6.84775972 -7.1309875 5.70340824 -6.1875 4.5625 C-5.66542969 3.92441406 -5.14335937 3.28632812 -4.60546875 2.62890625 C-3 1 -3 1 0 0 Z " fill="#ECF0F5" transform="translate(181,75)"/>
<path d="M0 0 C0.99 0.66 1.98 1.32 3 2 C1.03533587 3.06775224 -0.96855359 4.06553465 -3 5 C-5 4 -5 4 -6 2 C-3.1875 0.875 -3.1875 0.875 0 0 Z " fill="#D0D3D9" transform="translate(79,222)"/>
<path d="M0 0 C0.66 0.33 1.32 0.66 2 1 C-0.64 2.65 -3.28 4.3 -6 6 C-6.33 5.01 -6.66 4.02 -7 3 C-4.69631264 1.93347808 -2.35981813 0.93578995 0 0 Z " fill="#EBECF1" transform="translate(224,46)"/>
<path d="M0 0 C0.66 0 1.32 0 2 0 C2.33 0.99 2.66 1.98 3 3 C3.99 3.66 4.98 4.32 6 5 C3.69 4.67 1.38 4.34 -1 4 C-1 1 -1 1 0 0 Z " fill="#99A0AD" transform="translate(94,283)"/>
<path d="M0 0 C0.66 0.33 1.32 0.66 2 1 C-0.97 3.475 -0.97 3.475 -4 6 C-4.33 5.01 -4.66 4.02 -5 3 C-2.625 1.4375 -2.625 1.4375 0 0 Z " fill="#EFF2F3" transform="translate(69,237)"/>
<path d="M0 0 C0.33 0.66 0.66 1.32 1 2 C-0.32 3.32 -1.64 4.64 -3 6 C-3.99 5.67 -4.98 5.34 -6 5 C-4.02 3.35 -2.04 1.7 0 0 Z " fill="#B9BFCE" transform="translate(139,218)"/>
<path d="M0 0 C0.33 0.99 0.66 1.98 1 3 C-2.37097383 4.49821059 -4.20442119 5 -8 5 C-5.44008376 2.98863724 -2.95409701 1.37154504 0 0 Z " fill="#BAC1CA" transform="translate(217,205)"/>
<path d="M0 0 C0.6875 1.6875 0.6875 1.6875 1 4 C-0.4375 6.75 -0.4375 6.75 -2 9 C-2.6875 7.3125 -2.6875 7.3125 -3 5 C-1.5625 2.25 -1.5625 2.25 0 0 Z " fill="#8F97A2" transform="translate(96,174)"/>
<path d="M0 0 C1.32 0.33 2.64 0.66 4 1 C2.68 2.32 1.36 3.64 0 5 C-0.99 4.67 -1.98 4.34 -3 4 C-2.01 2.68 -1.02 1.36 0 0 Z " fill="#C0D2F4" transform="translate(246,123)"/>
<path d="M0 0 C0.99 0.33 1.98 0.66 3 1 C2.67 2.65 2.34 4.3 2 6 C0 4.625 0 4.625 -2 3 C-2 2.34 -2 1.68 -2 1 C-1.34 0.67 -0.68 0.34 0 0 Z " fill="#EEF1F5" transform="translate(176,82)"/>
<path d="M0 0 C0.66 0 1.32 0 2 0 C2.33 0.99 2.66 1.98 3 3 C1.71034824 4.37562854 0.37310707 5.70766393 -1 7 C-1.66 7 -2.32 7 -3 7 C-2.690625 6.401875 -2.38125 5.80375 -2.0625 5.1875 C-0.89790296 2.91043228 -0.89790296 2.91043228 0 0 Z " fill="#E1E6EB" transform="translate(133,203)"/>
<path d="M0 0 C0.66 0.33 1.32 0.66 2 1 C-0.93828597 3.50298434 -3.17902761 4.46930939 -7 5 C-7 4.34 -7 3.68 -7 3 C-4.69631264 1.93347808 -2.35981813 0.93578995 0 0 Z " fill="#575C6A" transform="translate(236,193)"/>
<path d="M0 0 C0.66 0.33 1.32 0.66 2 1 C0.68 3.31 -0.64 5.62 -2 8 C-2.66 7.34 -3.32 6.68 -4 6 C-2.25 1.125 -2.25 1.125 0 0 Z " fill="#D0D4DB" transform="translate(101,161)"/>
<path d="M0 0 C2.5 2.3125 2.5 2.3125 5 5 C5 5.99 5 6.98 5 8 C2.5 6.25 2.5 6.25 0 4 C0 2.68 0 1.36 0 0 Z " fill="#2A4286" transform="translate(215,120)"/>
<path d="M0 0 C-0.54723683 3.37462715 -1.0549 5.08235 -3 8 C-3.33 5.69 -3.66 3.38 -4 1 C-2 0 -2 0 0 0 Z " fill="#234D9B" transform="translate(214,98)"/>
</svg>
